<svg xmlns="http://www.w3.org/2000/svg"  viewBox="0 0 64 64" width="64px" height="64px"><path fill="#c2c2c2" d="M7.5,8.5h44a2,2,0,0,1,2,2v49a2,2,0,0,1-2,2H7.5a0,0,0,0,1,0,0V8.5A0,0,0,0,1,7.5,8.5Z" transform="rotate(90 30.5 35)"/><path fill="#212a41" d="M55,58.5H6A2.5,2.5,0,0,1,3.5,56V12a.5.5,0,0,1,.5-.5H57a.5.5,0,0,1,.5.5V56A2.5,2.5,0,0,1,55,58.5ZM4.5,12.5V56A1.5,1.5,0,0,0,6,57.5H55A1.5,1.5,0,0,0,56.5,56V12.5Z"/><path fill="#e0e0e0" d="M10.5,8.5h44a2,2,0,0,1,2,2v49a2,2,0,0,1-2,2h-44a0,0,0,0,1,0,0V8.5A0,0,0,0,1,10.5,8.5Z" transform="rotate(90 33.5 35)"/><path fill="#212a41" d="M58,58.5H9A2.5,2.5,0,0,1,6.5,56V12a.5.5,0,0,1,.5-.5H60a.5.5,0,0,1,.5.5V56A2.5,2.5,0,0,1,58,58.5ZM7.5,12.5V56A1.5,1.5,0,0,0,9,57.5H58A1.5,1.5,0,0,0,59.5,56V12.5Z"/><path fill="#c2c2c2" d="M6,6H55a2,2,0,0,1,2,2v4a0,0,0,0,1,0,0H4a0,0,0,0,1,0,0V8A2,2,0,0,1,6,6Z"/><path fill="#212a41" d="M57,12.5H4a.5.5,0,0,1-.5-.5V8A2.5,2.5,0,0,1,6,5.5H55A2.5,2.5,0,0,1,57.5,8v4A.5.5,0,0,1,57,12.5Zm-52.5-1h52V8A1.5,1.5,0,0,0,55,6.5H6A1.5,1.5,0,0,0,4.5,8Z"/><path fill="#c2c2c2" d="M58,56.5a.5.5,0,0,1-.5-.5V14a.5.5,0,0,1,1,0V56A.5.5,0,0,1,58,56.5Z"/><path fill="#fefefe" d="M9,56.5a.5.5,0,0,1-.5-.5V14a.5.5,0,0,1,1,0V56A.5.5,0,0,1,9,56.5Z"/><path fill="#e0e0e0" d="M9,6H58a2,2,0,0,1,2,2v4a0,0,0,0,1,0,0H7a0,0,0,0,1,0,0V8A2,2,0,0,1,9,6Z"/><path fill="#212a41" d="M60,12.5H7a.5.5,0,0,1-.5-.5V8A2.5,2.5,0,0,1,9,5.5H58A2.5,2.5,0,0,1,60.5,8v4A.5.5,0,0,1,60,12.5Zm-52.5-1h52V8A1.5,1.5,0,0,0,58,6.5H9A1.5,1.5,0,0,0,7.5,8Z"/><path fill="#212a41" d="M52,9.5H50a.5.5,0,0,1,0-1h2a.5.5,0,0,1,0,1Z"/><path fill="#212a41" d="M57,10.5a.5.5,0,0,1-.354-.146l-2-2a.5.5,0,0,1,.708-.708l2,2A.5.5,0,0,1,57,10.5Z"/><path fill="#212a41" d="M55,10.5a.5.5,0,0,1-.354-.854l2-2a.5.5,0,0,1,.708.708l-2,2A.5.5,0,0,1,55,10.5Z"/><path fill="#212a41" d="M34,53.5c-4.359,0-7.773-8.126-7.773-18.5S29.641,16.5,34,16.5s7.772,8.126,7.772,18.5S38.358,53.5,34,53.5Zm0-36c-3.671,0-6.773,8.014-6.773,17.5S30.329,52.5,34,52.5s6.772-8.014,6.772-17.5S37.671,17.5,34,17.5Z"/><path fill="#212a41" d="M23.6,46c-2.664,0-4.669-.727-5.584-2.229a4.126,4.126,0,0,1-.326-3.319c1.007-3.766,5.845-8.49,12.325-12.037,8.958-4.9,17.725-5.864,19.96-2.19a4.129,4.129,0,0,1,.328,3.319c-1.008,3.766-5.846,8.49-12.326,12.037h0C32.687,44.481,27.457,46,23.6,46ZM44.481,25C40.8,25,35.589,26.508,30.5,29.294c-6.155,3.369-10.913,7.958-11.839,11.419a3.174,3.174,0,0,0,.215,2.541C20.767,46.362,29.3,45.2,37.5,40.706h0c6.155-3.369,10.913-7.958,11.84-11.419a3.183,3.183,0,0,0-.215-2.541C48.407,25.566,46.731,25,44.481,25Zm-6.74,16.143h0Z"/><path fill="#212a41" d="M44.4,46c-3.853,0-9.082-1.522-14.377-4.42h0c-6.48-3.547-11.318-8.271-12.325-12.037a4.126,4.126,0,0,1,.326-3.319c2.237-3.675,11.005-2.712,19.961,2.19,6.48,3.547,11.318,8.271,12.326,12.037a4.129,4.129,0,0,1-.328,3.319C49.065,45.275,47.06,46,44.4,46Zm-13.9-5.3c8.2,4.488,16.733,5.656,18.627,2.548a3.183,3.183,0,0,0,.215-2.541c-.927-3.461-5.685-8.05-11.84-11.419-8.2-4.489-16.732-5.654-18.626-2.548a3.174,3.174,0,0,0-.215,2.541c.926,3.461,5.684,8.05,11.839,11.419Z"/><rect width="8" height="3" x="30" y="32" fill="#b7c0d7" rx="1" ry="1"/><path fill="#212a41" d="M37,35.5H31A1.5,1.5,0,0,1,29.5,34V33A1.5,1.5,0,0,1,31,31.5h6A1.5,1.5,0,0,1,38.5,33v1A1.5,1.5,0,0,1,37,35.5Zm-6-3a.5.5,0,0,0-.5.5v1a.5.5,0,0,0,.5.5h6a.5.5,0,0,0,.5-.5V33a.5.5,0,0,0-.5-.5Z"/><rect width="8" height="3" x="30" y="35" fill="#b7c0d7" rx="1" ry="1"/><path fill="#212a41" d="M37,38.5H31A1.5,1.5,0,0,1,29.5,37V36A1.5,1.5,0,0,1,31,34.5h6A1.5,1.5,0,0,1,38.5,36v1A1.5,1.5,0,0,1,37,38.5Zm-6-3a.5.5,0,0,0-.5.5v1a.5.5,0,0,0,.5.5h6a.5.5,0,0,0,.5-.5V36a.5.5,0,0,0-.5-.5Z"/><circle cx="34" cy="17" r="1.5" fill="#d32e5e"/><path fill="#212a41" d="M34,19a2,2,0,1,1,2-2A2,2,0,0,1,34,19Zm0-3a1,1,0,1,0,1,1A1,1,0,0,0,34,16Z"/><circle cx="49" cy="44" r="1.5" fill="#f9ac2f"/><path fill="#212a41" d="M49,46a2,2,0,1,1,2-2A2,2,0,0,1,49,46Zm0-3a1,1,0,1,0,1,1A1,1,0,0,0,49,43Z"/><circle cx="22" cy="35" r="1.5" fill="#bed38e"/><path fill="#212a41" d="M22,37a2,2,0,1,1,2-2A2,2,0,0,1,22,37Zm0-3a1,1,0,1,0,1,1A1,1,0,0,0,22,34Z"/></svg>