<svg xmlns="http://www.w3.org/2000/svg" xmlns:xlink="http://www.w3.org/1999/xlink" viewBox="0,0,256,256" width="50px" height="50px" fill-rule="nonzero"><g fill="#ffffff" fill-rule="nonzero" stroke="none" stroke-width="1" stroke-linecap="butt" stroke-linejoin="miter" stroke-miterlimit="10" stroke-dasharray="" stroke-dashoffset="0" font-family="none" font-weight="none" font-size="none" text-anchor="none" style="mix-blend-mode: normal"><g transform="scale(5.12,5.12)"><path d="M49.97656,27.37891c-0.07031,-0.31641 -0.29297,-0.57812 -0.59375,-0.70312c-0.10156,-0.04297 -2.43359,-0.98437 -6.85547,-1.90625c-1.00391,-1.08594 -2.43359,-1.76953 -4.02734,-1.76953c-0.96094,0 -1.86719,0.25 -2.65234,0.68359c-3.76172,-0.44922 -7.74219,-0.68359 -11.84766,-0.68359v-4c0,-0.26562 -0.10547,-0.51953 -0.29297,-0.70703c-0.1875,-0.1875 -0.44141,-0.29297 -0.70703,-0.29297c-0.27344,0 -6.44531,0.03125 -12.35937,2.52344l-1.67969,-5.80078c-0.12109,-0.42969 -0.51562,-0.72266 -0.96094,-0.72266h-7c-0.33203,0 -0.64062,0.16406 -0.82812,0.4375c-0.1875,0.27734 -0.22266,0.625 -0.10156,0.93359l1.92969,4.82031v6.80859c0,0.37891 0.21484,0.72656 0.55469,0.89453l3.57812,1.78906c0.54297,2.46484 2.74219,4.31641 5.36719,4.31641c1.17188,0 2.25781,-0.37109 3.15234,-1h20.69531c0.89453,0.62891 1.98047,1 3.15234,1c1.17188,0 2.25781,-0.37109 3.15234,-1h3.34766c0.28125,0 0.55078,-0.11719 0.73828,-0.32812l4,-4.39844c0.22266,-0.24219 0.30859,-0.57422 0.23828,-0.89453zM11.5,32c-1.92969,0 -3.5,-1.57031 -3.5,-3.5c0,-1.92969 1.57031,-3.5 3.5,-3.5c1.92969,0 3.5,1.57031 3.5,3.5c0,1.92969 -1.57031,3.5 -3.5,3.5zM38.5,32c-1.92969,0 -3.5,-1.57031 -3.5,-3.5c0,-1.92969 1.57031,-3.5 3.5,-3.5c1.92969,0 3.5,1.57031 3.5,3.5c0,1.92969 -1.57031,3.5 -3.5,3.5z"></path></g></g></svg>